<?xml version="1.0" encoding="utf-8"?><svg xmlns="http://www.w3.org/2000/svg" xmlns:xlink="http://www.w3.org/1999/xlink"><symbol viewBox="0 0 14 16" id="apple" xmlns="http://www.w3.org/2000/svg"><path d="M13.666 11.738c-.524 1.52-2.092 4.211-3.708 4.24-1.072.021-1.417-.635-2.642-.635-1.225 0-1.608.616-2.622.656-1.714.066-4.361-3.885-4.361-7.33 0-3.165 2.205-4.734 4.132-4.762 1.033-.019 2.01.696 2.64.696.632 0 1.817-.86 3.063-.734.522.022 1.986.21 2.926 1.585-2.494 1.628-2.105 5.033.572 6.284zM10.185 0C8.301.076 6.764 2.053 6.978 3.687 8.72 3.823 10.39 1.871 10.185 0z"/></symbol><symbol viewBox="0 0 13 10" id="check" xmlns="http://www.w3.org/2000/svg"><path d="M1.217 5l3.478 3.478 6.522-6.521" stroke="#fff" stroke-width="2" stroke-linecap="round" stroke-linejoin="round"/></symbol><symbol viewBox="0 0 10 7" id="check-green" xmlns="http://www.w3.org/2000/svg"><path d="M8.333 1.5L3.749 6.083 1.666 4" stroke="#23C220" stroke-width="1.6" stroke-linecap="round" stroke-linejoin="round"/></symbol><symbol viewBox="0 0 24 24" id="close" xmlns="http://www.w3.org/2000/svg"><path d="M18 6L6 18M6 6l12 12" stroke="#000" stroke-width="1.6" stroke-linecap="round" stroke-linejoin="round"/></symbol><symbol viewBox="0 0 4 16" id="dots" xmlns="http://www.w3.org/2000/svg"><path d="M4 2a2 2 0 11-4 0 2 2 0 014 0zm0 6a2 2 0 11-4 0 2 2 0 014 0zm0 6a2 2 0 11-4 0 2 2 0 014 0z"/></symbol><symbol viewBox="0 0 9 2" id="dots-horizontal" xmlns="http://www.w3.org/2000/svg"><path d="M.86 1.71a.838.838 0 01-.61-.25A.81.81 0 010 .853.8.8 0 01.25.25.838.838 0 01.86 0c.229 0 .428.083.597.25a.821.821 0 01.137 1.035.898.898 0 01-.313.313.813.813 0 01-.422.113zm3.19 0a.838.838 0 01-.61-.25.81.81 0 01-.25-.608.8.8 0 01.25-.602.838.838 0 01.61-.25c.229 0 .428.083.598.25a.821.821 0 01.136 1.035.898.898 0 01-.312.313.813.813 0 01-.422.113zm3.19 0a.838.838 0 01-.61-.25.81.81 0 01-.25-.608.8.8 0 01.25-.602.838.838 0 01.61-.25c.23 0 .429.083.598.25a.821.821 0 01.137 1.035.898.898 0 01-.313.313.813.813 0 01-.422.113z"/></symbol><symbol viewBox="0 0 6 12" id="fb" xmlns="http://www.w3.org/2000/svg"><path d="M1.5 4H0v2h1.5v6H4V6h1.821L6 4H4v-.833c0-.478.096-.667.558-.667H6V0H4.096C2.298 0 1.5.791 1.5 2.308V4z"/></symbol><symbol viewBox="0 0 16 16" id="fi_archive" xmlns="http://www.w3.org/2000/svg"><g clip-path="url(#aha)" stroke="#000" stroke-width="1.6" stroke-linecap="round" stroke-linejoin="round"><path d="M14 5.333V14H2V5.333M6.666 8h2.667m6-6H.666v3.333h14.667V2z"/></g><defs><clipPath id="aha"><path d="M0 0h16v16H0z"/></clipPath></defs></symbol><symbol viewBox="0 0 16 16" id="fi_archive-o" xmlns="http://www.w3.org/2000/svg"><g clip-path="url(#aia)" stroke="#C56622" stroke-width="1.6" stroke-linecap="round" stroke-linejoin="round"><path d="M14 5.333V14H2V5.333M6.666 8h2.667m6-6H.666v3.333h14.667V2z"/></g><defs><clipPath id="aia"><path d="M0 0h16v16H0z"/></clipPath></defs></symbol><symbol viewBox="0 0 16 16" id="fi_arrow-left" xmlns="http://www.w3.org/2000/svg"><path d="M12.667 8H3.334M8 12.667L3.335 8l4.667-4.667" opacity=".2" stroke="#0B0B0B" stroke-width="1.6" stroke-linecap="round" stroke-linejoin="round"/></symbol><symbol viewBox="0 0 16 16" id="fi_book" xmlns="http://www.w3.org/2000/svg"><path d="M2.666 13a1.667 1.667 0 011.667-1.667h9" stroke="#000" stroke-width="1.6" stroke-linecap="round" stroke-linejoin="round"/><path d="M4.333 1.333h9v13.334h-9A1.667 1.667 0 012.666 13V3a1.667 1.667 0 011.667-1.667v0z" stroke="#000" stroke-width="1.6" stroke-linecap="round" stroke-linejoin="round"/></symbol><symbol viewBox="0 0 16 16" id="fi_book-o" xmlns="http://www.w3.org/2000/svg"><path d="M2.666 13a1.667 1.667 0 011.667-1.667h9" stroke="#C56622" stroke-width="1.6" stroke-linecap="round" stroke-linejoin="round"/><path d="M4.333 1.333h9v13.334h-9A1.667 1.667 0 012.666 13V3a1.667 1.667 0 011.667-1.667v0z" stroke="#C56622" stroke-width="1.6" stroke-linecap="round" stroke-linejoin="round"/></symbol><symbol viewBox="0 0 10 6" id="fi_chevron-down" xmlns="http://www.w3.org/2000/svg"><path d="M1 1l4 4 4-4" stroke="#111" stroke-linecap="round" stroke-linejoin="round"/></symbol><symbol viewBox="0 0 6 10" id="fi_chevron-left" xmlns="http://www.w3.org/2000/svg"><path d="M1 9l4-4-4-4" stroke="#111" stroke-width="1.6" stroke-linecap="round" stroke-linejoin="round"/></symbol><symbol viewBox="0 0 12 12" id="fi_download" xmlns="http://www.w3.org/2000/svg"><path d="M10.5 7.5v2a1 1 0 01-1 1h-7a1 1 0 01-1-1v-2m2-2.5L6 7.5 8.5 5M6 7.5v-6" stroke="#000" stroke-linecap="round" stroke-linejoin="round"/></symbol><symbol viewBox="0 0 16 16" id="fi_globe" xmlns="http://www.w3.org/2000/svg"><g clip-path="url(#apa)" stroke="#111" stroke-width="1.6" stroke-linecap="round" stroke-linejoin="round"><path d="M8 14.667A6.667 6.667 0 108 1.333a6.667 6.667 0 000 13.334zM1.333 8h13.333"/><path d="M8 1.333A10.2 10.2 0 0110.666 8 10.2 10.2 0 018 14.667 10.2 10.2 0 015.333 8 10.2 10.2 0 018 1.333v0z"/></g><defs><clipPath id="apa"><path d="M0 0h16v16H0z"/></clipPath></defs></symbol><symbol viewBox="0 0 16 16" id="fi_heart" xmlns="http://www.w3.org/2000/svg"><path d="M13.893 3.073a3.667 3.667 0 00-5.187 0L8 3.78l-.707-.707A3.668 3.668 0 002.106 8.26l.707.707L8 14.153l5.186-5.186.707-.707a3.667 3.667 0 000-5.187v0z" stroke="#111" stroke-width="1.6" stroke-linecap="round" stroke-linejoin="round"/></symbol><symbol viewBox="0 0 16 16" id="fi_home" xmlns="http://www.w3.org/2000/svg"><g opacity=".2" stroke="#0B0B0B" stroke-width="1.6" stroke-linecap="round" stroke-linejoin="round"><path d="M2 6l6-4.667L14 6v7.333a1.334 1.334 0 01-1.333 1.334H3.333A1.334 1.334 0 012 13.333V6z"/><path d="M6 14.667V8h4v6.667"/></g></symbol><symbol viewBox="0 0 16 16" id="fi_log-in" xmlns="http://www.w3.org/2000/svg"><path d="M6.667 11.333L10 8 6.667 4.667M10 8H2m8-6h2.667A1.333 1.333 0 0114 3.333v9.334A1.334 1.334 0 0112.667 14H10" stroke="#111" stroke-width="1.6" stroke-linecap="round" stroke-linejoin="round"/></symbol><symbol viewBox="0 0 16 16" id="fi_log-out" xmlns="http://www.w3.org/2000/svg"><path d="M10.666 11.333L13.999 8l-3.333-3.333M14 8H6m0 6H3.333A1.334 1.334 0 012 12.667V3.333A1.333 1.333 0 013.333 2H6" stroke="#000" stroke-width="1.6" stroke-linecap="round" stroke-linejoin="round"/></symbol><symbol viewBox="0 0 16 16" id="fi_log-out-o" xmlns="http://www.w3.org/2000/svg"><path d="M10.666 11.333L13.999 8l-3.333-3.333M14 8H6m0 6H3.333A1.334 1.334 0 012 12.667V3.333A1.333 1.333 0 013.333 2H6" stroke="#C56622" stroke-width="1.6" stroke-linecap="round" stroke-linejoin="round"/></symbol><symbol viewBox="0 0 16 16" id="fi_mail" xmlns="http://www.w3.org/2000/svg"><path d="M2.667 2.667h10.667c.733 0 1.333.6 1.333 1.333v8c0 .733-.6 1.333-1.333 1.333H2.667c-.733 0-1.333-.6-1.333-1.333V4c0-.733.6-1.333 1.333-1.333z" stroke="#000" stroke-width="1.6" stroke-linecap="round" stroke-linejoin="round"/><path d="M14.667 4L8.001 8.667 1.334 4" stroke="#000" stroke-width="1.6" stroke-linecap="round" stroke-linejoin="round"/></symbol><symbol viewBox="0 0 16 16" id="fi_mail-o" xmlns="http://www.w3.org/2000/svg"><path d="M2.667 2.667h10.667c.733 0 1.333.6 1.333 1.333v8c0 .733-.6 1.333-1.333 1.333H2.667c-.733 0-1.333-.6-1.333-1.333V4c0-.733.6-1.333 1.333-1.333z" stroke="#C56622" stroke-width="1.6" stroke-linecap="round" stroke-linejoin="round"/><path d="M14.667 4L8.001 8.667 1.334 4" stroke="#C56622" stroke-width="1.6" stroke-linecap="round" stroke-linejoin="round"/></symbol><symbol viewBox="0 0 15 15" id="fi_navigation" xmlns="http://www.w3.org/2000/svg"><path d="M1 7.333l12.667-6-6 12.667-1.334-5.333L1 7.333z" stroke="#111" stroke-linecap="round" stroke-linejoin="round"/></symbol><symbol viewBox="0 0 16 16" id="fi_plus" xmlns="http://www.w3.org/2000/svg"><path d="M8 3.333v9.334M3.333 8h9.333" stroke="#C56622" stroke-width="1.6" stroke-linecap="round" stroke-linejoin="round"/></symbol><symbol viewBox="0 0 16 16" id="fi_settings" xmlns="http://www.w3.org/2000/svg"><g clip-path="url(#aza)" stroke="#0B0B0B" stroke-width="1.6" stroke-linecap="round" stroke-linejoin="round"><path d="M8 10a2 2 0 100-4 2 2 0 000 4z"/><path d="M12.933 10a1.1 1.1 0 00.22 1.213l.04.04a1.333 1.333 0 11-1.887 1.887l-.04-.04a1.1 1.1 0 00-1.213-.22 1.1 1.1 0 00-.667 1.007V14a1.333 1.333 0 01-2.667 0v-.06A1.1 1.1 0 006 12.933a1.1 1.1 0 00-1.213.22l-.04.04a1.333 1.333 0 11-1.887-1.886l.04-.04a1.1 1.1 0 00.22-1.214 1.1 1.1 0 00-1.006-.666H2A1.333 1.333 0 012 6.72h.06A1.1 1.1 0 003.066 6a1.1 1.1 0 00-.22-1.213l-.04-.04A1.334 1.334 0 114.693 2.86l.04.04a1.1 1.1 0 001.213.22h.053a1.1 1.1 0 00.667-1.007V2a1.333 1.333 0 112.667 0v.06a1.1 1.1 0 00.666 1.007 1.1 1.1 0 001.214-.22l.04-.04a1.334 1.334 0 111.886 1.886l-.04.04a1.101 1.101 0 00-.22 1.214V6a1.101 1.101 0 001.007.667h.113a1.333 1.333 0 110 2.666h-.06a1.1 1.1 0 00-1.006.667v0z"/></g><defs><clipPath id="aza"><path d="M0 0h16v16H0z"/></clipPath></defs></symbol><symbol viewBox="0 0 16 16" id="fi_settings-o" xmlns="http://www.w3.org/2000/svg"><g clip-path="url(#baa)" stroke="#C56622" stroke-width="1.6" stroke-linecap="round" stroke-linejoin="round"><path d="M8 10a2 2 0 100-4 2 2 0 000 4z"/><path d="M12.933 10a1.1 1.1 0 00.22 1.213l.04.04a1.333 1.333 0 11-1.887 1.887l-.04-.04a1.1 1.1 0 00-1.213-.22 1.1 1.1 0 00-.667 1.007V14a1.333 1.333 0 01-2.667 0v-.06A1.1 1.1 0 006 12.933a1.1 1.1 0 00-1.213.22l-.04.04a1.333 1.333 0 11-1.887-1.886l.04-.04a1.1 1.1 0 00.22-1.214 1.1 1.1 0 00-1.006-.666H2A1.333 1.333 0 012 6.72h.06A1.1 1.1 0 003.066 6a1.1 1.1 0 00-.22-1.213l-.04-.04A1.334 1.334 0 114.693 2.86l.04.04a1.1 1.1 0 001.213.22h.053a1.1 1.1 0 00.667-1.007V2a1.333 1.333 0 112.667 0v.06a1.1 1.1 0 00.666 1.007 1.1 1.1 0 001.214-.22l.04-.04a1.334 1.334 0 111.886 1.886l-.04.04a1.101 1.101 0 00-.22 1.214V6a1.101 1.101 0 001.007.667h.113a1.333 1.333 0 110 2.666h-.06a1.1 1.1 0 00-1.006.667v0z"/></g><defs><clipPath id="baa"><path d="M0 0h16v16H0z"/></clipPath></defs></symbol><symbol viewBox="0 0 24 24" id="fi_user" xmlns="http://www.w3.org/2000/svg"><path d="M20 21v-2a4 4 0 00-4-4H8a4 4 0 00-4 4v2m8-10a4 4 0 100-8 4 4 0 000 8z" opacity=".6" stroke="#C56622" stroke-width="1.6" stroke-linecap="round" stroke-linejoin="round"/></symbol><symbol viewBox="0 0 24 24" id="fi_users" xmlns="http://www.w3.org/2000/svg"><path d="M23 21v-2a4 4 0 00-3-3.87M17 21v-2a4 4 0 00-4-4H5a4 4 0 00-4 4v2M16 3.13a4 4 0 010 7.75M9 11a4 4 0 100-8 4 4 0 000 8z" stroke="#000" stroke-width="1.6" stroke-linecap="round" stroke-linejoin="round"/></symbol><symbol viewBox="0 0 12 12" id="fi_x" xmlns="http://www.w3.org/2000/svg"><path d="M8.825 3.177L3.178 8.824m0-5.647l5.647 5.647" stroke="red" stroke-width="1.6" stroke-linecap="round" stroke-linejoin="round"/></symbol><symbol viewBox="0 0 8 15" id="filter" xmlns="http://www.w3.org/2000/svg"><path d="M2 5l2-2 2 2m-4 5l2 2 2-2" stroke="#111" stroke-linecap="round" stroke-linejoin="round"/></symbol><symbol viewBox="0 0 16 16" id="google-play" xmlns="http://www.w3.org/2000/svg"><path fill-rule="evenodd" clip-rule="evenodd" d="M1.048 15.776l7.02-7 2.475 2.467-8.346 4.627a1.042 1.042 0 01-1.021-.007l-.128-.087zM7.36 8.07L.667 14.743V1.395L7.36 8.07zm4.183-2.758l3.27 1.813c.321.179.52.513.52.876s-.199.697-.52.876l-3.36 1.862L8.778 8.07l2.766-2.758zM.973.29A1.042 1.042 0 012.197.13l8.436 4.677-2.564 2.556L.974.29z"/></symbol><symbol viewBox="0 0 12 12" id="in" xmlns="http://www.w3.org/2000/svg"><path d="M2.49 1.75C2.49 2.44 1.935 3 1.25 3 .565 3 .01 2.44.01 1.75S.565.5 1.25.5c.685 0 1.24.56 1.24 1.25zM2.5 4H0v8h2.5V4zm3.991 0H4.007v8h2.485V7.8c0-2.335 3.014-2.526 3.014 0V12H12V6.934c0-3.94-4.461-3.796-5.509-1.857V4z"/></symbol><symbol viewBox="0 0 12 12" id="inst" xmlns="http://www.w3.org/2000/svg"><path d="M6 1.081c1.602 0 1.792.006 2.425.036 1.626.073 2.385.845 2.46 2.459.029.632.034.823.034 2.424 0 1.603-.006 1.793-.035 2.425-.074 1.612-.832 2.385-2.459 2.46-.633.029-.822.034-2.425.034-1.602 0-1.792-.005-2.425-.035-1.63-.074-2.385-.849-2.459-2.46-.029-.632-.035-.821-.035-2.424 0-1.602.006-1.792.035-2.425.074-1.613.832-2.385 2.46-2.459.632-.029.822-.035 2.424-.035zM6 0C4.37 0 4.167.007 3.526.036c-2.179.1-3.39 1.309-3.49 3.49C.008 4.166 0 4.371 0 6c0 1.63.007 1.834.036 2.474.1 2.179 1.309 3.39 3.49 3.49.64.029.845.036 2.474.036 1.63 0 1.834-.007 2.474-.036 2.177-.1 3.391-1.309 3.49-3.49.029-.64.036-.845.036-2.474 0-1.63-.007-1.833-.036-2.474-.098-2.176-1.309-3.39-3.49-3.49C7.835.008 7.63 0 6 0zm0 2.919a3.081 3.081 0 100 6.162A3.081 3.081 0 006 2.92zM6 8a2 2 0 110-4 2 2 0 010 4zm3.203-5.922a.72.72 0 100 1.44.72.72 0 000-1.44z"/></symbol><symbol viewBox="0 0 7 11" id="left-arr" xmlns="http://www.w3.org/2000/svg"><path d="M1 1l4.5 4.5L1 10" stroke="#000" stroke-width="1.6"/></symbol><symbol viewBox="0 0 19 35" id="mapIcon" xmlns="http://www.w3.org/2000/svg"><g filter="url(#bja)"><path d="M1.36 27.395a.097.097 0 01.109-.159l8.017 4.81a.661.661 0 11-.746 1.09l-7.38-5.74z"/></g><rect x="8.555" y="16.556" width="1.778" height="16.889" rx=".889"/><circle cx="9.444" cy="9.445" r="8.889"/><circle cx="12.555" cy="7.222" r="3.111"/><defs><filter id="bja" x=".322" y="26.222" width="10.484" height="8.053" filterUnits="userSpaceOnUse" color-interpolation-filters="sRGB"><feFlood flood-opacity="0" result="BackgroundImageFix"/><feBlend in="SourceGraphic" in2="BackgroundImageFix" result="shape"/><feGaussianBlur stdDeviation=".5" result="effect1_foregroundBlur_297_8454"/></filter></defs></symbol><symbol viewBox="0 0 4 6" id="question" xmlns="http://www.w3.org/2000/svg"><path d="M1.202 4.188v-.074c.002-.343.034-.616.096-.819.065-.202.156-.365.273-.488.117-.125.26-.24.429-.344a1.93 1.93 0 00.31-.236c.092-.087.165-.183.218-.29a.807.807 0 00.08-.36.71.71 0 00-.105-.39.713.713 0 00-.284-.255.848.848 0 00-.395-.091.869.869 0 00-.384.088.743.743 0 00-.298.261.858.858 0 00-.13.44H0C.01 1.27.097.97.261.728.428.485.648.303.921.182 1.194.06 1.497 0 1.83 0c.361 0 .68.063.954.19.277.127.492.308.645.543.155.233.233.51.233.83 0 .215-.035.409-.105.579-.068.17-.166.322-.293.455a2.14 2.14 0 01-.451.355 1.88 1.88 0 00-.378.295.982.982 0 00-.216.361c-.046.136-.07.305-.071.506v.074h-.946zm.494 1.772a.606.606 0 01-.44-.182.598.598 0 01-.185-.443c0-.17.062-.316.185-.437a.606.606 0 01.44-.182c.169 0 .314.06.438.182a.588.588 0 01.187.437c0 .116-.03.22-.088.316a.653.653 0 01-.227.227.596.596 0 01-.31.082z"/></symbol><symbol viewBox="0 0 20 23" id="save" xmlns="http://www.w3.org/2000/svg"><g filter="url(#bla)"><path d="M17 20l-7-5-7 5V4a2 2 0 012-2h10a2 2 0 012 2v16z" stroke="#fff" stroke-width="1.6" stroke-linecap="round" stroke-linejoin="round" shape-rendering="crispEdges"/></g><defs><filter id="bla" x=".2" y=".2" width="19.6" height="23.6" filterUnits="userSpaceOnUse" color-interpolation-filters="sRGB"><feFlood flood-opacity="0" result="BackgroundImageFix"/><feColorMatrix in="SourceAlpha" values="0 0 0 0 0 0 0 0 0 0 0 0 0 0 0 0 0 0 127 0" result="hardAlpha"/><feOffset dy="1"/><feGaussianBlur stdDeviation="1"/><feComposite in2="hardAlpha" operator="out"/><feColorMatrix values="0 0 0 0 0 0 0 0 0 0 0 0 0 0 0 0 0 0 0.25 0"/><feBlend in2="BackgroundImageFix" result="effect1_dropShadow_317_1610"/><feBlend in="SourceGraphic" in2="effect1_dropShadow_317_1610" result="shape"/></filter></defs></symbol><symbol viewBox="0 0 28 28" id="send" xmlns="http://www.w3.org/2000/svg"><g clip-path="url(#bma)" stroke="#0B0B0B" stroke-width="1.6" stroke-linecap="round" stroke-linejoin="round"><path d="M24.883 14H12.44m12.443 0l-15.27 7.583L12.442 14 9.614 6.417 24.883 14z"/></g><defs><clipPath id="bma"><path transform="scale(.98438 1.01538) rotate(45 6.894 16.643)" d="M0 0h19.499v19.499H0z"/></clipPath></defs></symbol><symbol viewBox="0 0 17 18" id="tags-1" xmlns="http://www.w3.org/2000/svg"><path d="M6.224 13.274c0 .472-.38.854-.848.854a.851.851 0 01-.848-.854c0-.472.38-.855.848-.855.468 0 .848.383.848.855z"/><path fill-rule="evenodd" clip-rule="evenodd" d="M2.832 1.949c-.585 0-1.06.478-1.06 1.068v10.35c0 .303.128.591.35.794l1.782 1.616c.195.177.448.274.71.274h1.524c.262 0 .515-.097.71-.274l2.132-1.934V3.017c0-.59-.475-1.068-1.06-1.068H2.832zm7.42 10.632l4.499-4.535a1.074 1.074 0 000-1.51l-3.889-3.92a.56.56 0 00-.663-.1c.035.162.053.33.053.501v9.564zM9.598 1.385A2.316 2.316 0 007.92.667H2.832A2.341 2.341 0 00.5 3.017v10.35c0 .666.28 1.301.772 1.747l1.781 1.616a2.32 2.32 0 001.56.603h1.525c.577 0 1.132-.214 1.56-.603l2.343-2.125a.76.76 0 00.025-.023l5.584-5.63a2.362 2.362 0 000-3.323l-3.888-3.92a1.825 1.825 0 00-2.164-.324z"/></symbol><symbol viewBox="0 0 18 18" id="tags-2" xmlns="http://www.w3.org/2000/svg"><path clip-rule="evenodd" d="M6.803 1.949a2.656 2.656 0 100 5.311 2.656 2.656 0 000-5.311zM2.865 4.604a3.938 3.938 0 117.875 0 3.938 3.938 0 01-7.875 0zm2.312 7.235a3.228 3.228 0 00-3.228 3.227c0 .09.015.15.03.185.013.028.022.033.026.036.44.258 1.705.764 4.798.764 3.092 0 4.357-.506 4.796-.764.005-.002.014-.008.026-.036a.47.47 0 00.031-.184 3.228 3.228 0 00-3.228-3.228H5.177zm-4.51 3.227a4.51 4.51 0 014.51-4.51h3.251a4.51 4.51 0 014.51 4.51c0 .43-.145 1.007-.689 1.326-.717.422-2.241.941-5.446.941-3.206 0-4.73-.52-5.447-.94-.544-.32-.689-.898-.689-1.327zM11.953 2.24a.641.641 0 01.786-.452c1.414.382 2.397 1.778 2.397 3.366 0 1.677-1.15 3.19-2.762 3.384a.641.641 0 11-.153-1.273c.86-.104 1.633-.967 1.633-2.111 0-1.085-.666-1.917-1.45-2.128a.641.641 0 01-.451-.787zm1.913 8.835a.64.64 0 01.752-.506 3.36 3.36 0 012.716 3.297v.445c0 .395-.119.957-.633 1.286-.347.221-.884.457-1.713.625a.641.641 0 01-.254-1.257c.707-.143 1.089-.329 1.276-.448l.002-.002a.098.098 0 00.012-.024.494.494 0 00.028-.18v-.445c0-.994-.704-1.849-1.68-2.039a.641.641 0 01-.506-.752z"/></symbol><symbol viewBox="0 0 18 18" id="tags-3" xmlns="http://www.w3.org/2000/svg"><path clip-rule="evenodd" d="M3.231 3.939c0-1.281 1.052-2.32 2.35-2.32h3.42c.353 0 .64.283.64.633 0 .35-.287.632-.64.632H5.58c-.59 0-1.068.472-1.068 1.055v.843c0 .35-.287.633-.64.633a.637.637 0 01-.642-.633V3.94zm.641 8.646c.354 0 .641.283.641.633v.843c0 .583.478 1.055 1.069 1.055H9c.354 0 .641.283.641.632 0 .35-.287.633-.64.633H5.58c-1.298 0-2.35-1.039-2.35-2.32v-.843c0-.35.287-.633.641-.633z"/><path clip-rule="evenodd" d="M9.641 2.989c0-.735.742-1.244 1.44-.99l4.273 1.563c.42.153.698.548.698.989v8.899c0 .44-.279.835-.698.988L11.081 16c-.698.256-1.44-.254-1.44-.988V2.989zM11.526.813C9.991.253 8.36 1.373 8.36 2.99v12.023c0 1.615 1.632 2.736 3.167 2.175l4.274-1.562a2.321 2.321 0 001.534-2.175v-8.9c0-.97-.612-1.838-1.534-2.175L11.526.813zM4.274 6.866a.647.647 0 01.906 0l1.71 1.687c.25.247.25.647 0 .894l-1.71 1.688a.647.647 0 01-.906 0 .627.627 0 010-.895l.615-.607H1.308A.637.637 0 01.667 9c0-.35.287-.633.641-.633h3.58l-.614-.607a.627.627 0 010-.894z"/></symbol><symbol viewBox="0 0 14 18" id="tags-4" xmlns="http://www.w3.org/2000/svg"><path clip-rule="evenodd" d="M2.699 1.949c-.594 0-1.076.478-1.076 1.068v11.966c0 .59.482 1.068 1.076 1.068H11.3c.594 0 1.075-.478 1.075-1.068V6.617c0-.278-.11-.545-.304-.745l-3.523-3.6a1.079 1.079 0 00-.77-.323h-5.08zM.333 3.017c0-1.298 1.06-2.35 2.366-2.35h5.08c.638 0 1.25.257 1.695.712l3.523 3.6c.43.438.67 1.026.67 1.638v8.366c0 1.298-1.06 2.35-2.366 2.35H2.699a2.358 2.358 0 01-2.366-2.35V3.017z"/><path clip-rule="evenodd" d="M3.774 11.564c0 .354.289.641.645.641H9.58a.643.643 0 00.646-.64.643.643 0 00-.646-.642H4.42a.643.643 0 00-.645.641zm0-3.419c0 .354.289.641.645.641h2.58a.643.643 0 00.646-.64A.643.643 0 007 7.503H4.419a.643.643 0 00-.645.641z"/></symbol><symbol viewBox="0 0 18 18" id="tags-5" xmlns="http://www.w3.org/2000/svg"><path clip-rule="evenodd" d="M9 1.949c-1.818 0-4.306.166-5.847.284-.5.039-.894.427-.94.923-.117 1.279-.264 3.165-.264 4.562 0 1.397.147 3.283.264 4.562.046.497.44.884.94.923 1.54.118 4.03.284 5.847.284 1.819 0 4.307-.166 5.848-.284.5-.039.894-.426.94-.923.117-1.279.264-3.165.264-4.562 0-1.397-.147-3.283-.264-4.562a1.017 1.017 0 00-.94-.923C13.306 2.115 10.817 1.95 9 1.95zM3.055.955C4.596.837 7.128.667 9 .667c1.873 0 4.405.17 5.946.288a2.299 2.299 0 012.118 2.084c.118 1.281.27 3.218.27 4.679 0 1.461-.152 3.398-.27 4.679a2.299 2.299 0 01-2.118 2.084c-1.541.119-4.073.288-5.946.288-1.872 0-4.404-.17-5.945-.288a2.299 2.299 0 01-2.119-2.084C.82 11.117.667 9.179.667 7.718c0-1.461.152-3.398.27-4.679A2.299 2.299 0 013.054.955zM4.94 16.692a.64.64 0 01.642-.64h6.837a.641.641 0 110 1.281H5.582a.641.641 0 01-.641-.64z"/><path clip-rule="evenodd" d="M1.522 10.71c0-.355.287-.642.64-.642h13.676a.641.641 0 110 1.283H2.163a.641.641 0 01-.641-.642z"/></symbol><symbol viewBox="0 0 19 18" id="tags-6" xmlns="http://www.w3.org/2000/svg"><path clip-rule="evenodd" d="M.833 1.3a.64.64 0 01.645-.633h.632c1.194 0 2.2.871 2.348 2.033l.171 1.342h12.198c.92 0 1.626.803 1.489 1.696l-.922 6.032c-.174 1.136-1.17 1.977-2.34 1.977H6.832c-1.171 0-2.166-.84-2.34-1.976l-1.07-7.002-.003-.015-.242-1.897a1.069 1.069 0 00-1.067-.924h-.632A.64.64 0 01.833 1.3zm3.976 4.008l.96 6.275a1.07 1.07 0 001.063.898h8.221a1.07 1.07 0 001.064-.898l.923-6.033a.212.212 0 00-.213-.242H4.809z"/><path d="M16.105 16.49a.852.852 0 01-.86.843.852.852 0 01-.86-.843c0-.466.385-.844.86-.844s.86.377.86.843zm-8.604 0a.852.852 0 01-.86.843.852.852 0 01-.86-.843c0-.466.385-.844.86-.844s.86.377.86.843z"/></symbol><symbol viewBox="0 0 18 18" id="tags-7" xmlns="http://www.w3.org/2000/svg"><path clip-rule="evenodd" d="M.667 13.274a2.35 2.35 0 014.7 0v1.709a2.35 2.35 0 01-4.7 0v-1.71zm2.35-1.069c-.59 0-1.068.479-1.068 1.069v1.709a1.068 1.068 0 002.137 0v-1.71c0-.59-.479-1.068-1.069-1.068zm3.633-4.06a2.35 2.35 0 014.7 0v6.838a2.35 2.35 0 01-4.7 0V8.145zM9 7.077c-.59 0-1.068.478-1.068 1.068v6.838a1.068 1.068 0 002.137 0V8.145c0-.59-.479-1.068-1.069-1.068zm3.633-4.06a2.35 2.35 0 114.7 0v11.966a2.35 2.35 0 01-4.7 0V3.017zm2.35-1.068c-.59 0-1.068.478-1.068 1.068v11.966a1.068 1.068 0 102.137 0V3.017c0-.59-.479-1.068-1.069-1.068z"/></symbol><symbol viewBox="0 0 12 11" id="telegram" xmlns="http://www.w3.org/2000/svg"><path fill-rule="evenodd" clip-rule="evenodd" d="M9.192 10.39a.595.595 0 00.554.072.58.58 0 00.362-.42C10.542 8 11.596 2.832 11.992.974a.39.39 0 00-.13-.379.4.4 0 00-.399-.07C9.367 1.301 2.91 3.724.271 4.7a.413.413 0 00-.27.4c.005.177.124.33.296.382 1.183.354 2.737.846 2.737.846s.726 2.193 1.104 3.308c.048.14.157.25.302.288a.433.433 0 00.405-.104l1.548-1.46s1.786 1.31 2.8 2.03zM3.687 6.05l.84 2.77.186-1.754 5.093-4.593a.139.139 0 00.016-.189.142.142 0 00-.188-.032L3.687 6.051z"/></symbol><symbol viewBox="0 0 12 10" id="tw" xmlns="http://www.w3.org/2000/svg"><path d="M12 1.279a4.915 4.915 0 01-1.414.387A2.466 2.466 0 0011.668.304a4.932 4.932 0 01-1.563.598 2.464 2.464 0 00-4.196 2.245A6.99 6.99 0 01.836.575a2.465 2.465 0 00.762 3.287 2.451 2.451 0 01-1.115-.308 2.464 2.464 0 001.975 2.445 2.468 2.468 0 01-1.112.042 2.464 2.464 0 002.3 1.709A4.95 4.95 0 010 8.77a6.97 6.97 0 003.774 1.106c4.571 0 7.154-3.86 6.997-7.323A5.012 5.012 0 0012 1.279z"/></symbol></svg>