<svg width="14" height="16" viewBox="0 0 14 16" fill="#111111" xmlns="http://www.w3.org/2000/svg">
<path d="M13.6663 11.738C13.1423 13.258 11.5737 15.9493 9.95767 15.9787C8.88567 15.9993 8.54101 15.3433 7.31567 15.3433C6.09101 15.3433 5.70767 15.9587 4.69434 15.9987C2.97967 16.0647 0.333008 12.114 0.333008 8.66867C0.333008 5.504 2.53834 3.93533 4.46501 3.90667C5.49834 3.888 6.47434 4.60333 7.10434 4.60333C7.73701 4.60333 8.92234 3.74333 10.1683 3.86933C10.6897 3.89133 12.1543 4.07933 13.0943 5.454C10.6003 7.082 10.989 10.4867 13.6663 11.738ZM10.185 0C8.30101 0.076 6.76367 2.05267 6.97834 3.68733C8.71968 3.82267 10.3903 1.87067 10.185 0Z"/>
</svg>
