<svg width="9" height="2" viewBox="0 0 9 2" fill="none" xmlns="http://www.w3.org/2000/svg">
<path d="M0.859434 1.71094C0.622455 1.71094 0.41933 1.6276 0.250059 1.46094C0.0807884 1.29427 -0.00254495 1.09115 5.91843e-05 0.851562C-0.00254495 0.617187 0.0807884 0.416667 0.250059 0.25C0.41933 0.0833333 0.622455 0 0.859434 0C1.0886 0 1.28782 0.0833333 1.45709 0.25C1.62897 0.416667 1.7162 0.617187 1.71881 0.851562C1.7162 1.01042 1.67454 1.15495 1.59381 1.28516C1.51568 1.41536 1.41152 1.51953 1.28131 1.59766C1.15371 1.67318 1.01308 1.71094 0.859434 1.71094Z" fill="#FF7A00"/>
<path d="M4.04986 1.71094C3.81288 1.71094 3.60976 1.6276 3.44049 1.46094C3.27122 1.29427 3.18788 1.09115 3.19049 0.851562C3.18788 0.617187 3.27122 0.416667 3.44049 0.25C3.60976 0.0833333 3.81288 0 4.04986 0C4.27903 0 4.47825 0.0833333 4.64752 0.25C4.8194 0.416667 4.90663 0.617187 4.90924 0.851562C4.90663 1.01042 4.86497 1.15495 4.78424 1.28516C4.70611 1.41536 4.60195 1.51953 4.47174 1.59766C4.34413 1.67318 4.20351 1.71094 4.04986 1.71094Z" fill="#FF7A00"/>
<path d="M7.24029 1.71094C7.00331 1.71094 6.80019 1.6276 6.63092 1.46094C6.46165 1.29427 6.37831 1.09115 6.38092 0.851562C6.37831 0.617187 6.46165 0.416667 6.63092 0.25C6.80019 0.0833333 7.00331 0 7.24029 0C7.46946 0 7.66868 0.0833333 7.83795 0.25C8.00982 0.416667 8.09706 0.617187 8.09967 0.851562C8.09706 1.01042 8.0554 1.15495 7.97467 1.28516C7.89654 1.41536 7.79238 1.51953 7.66217 1.59766C7.53456 1.67318 7.39394 1.71094 7.24029 1.71094Z" fill="#FF7A00"/>
</svg>
