<svg width="16" height="16" viewBox="0 0 16 16" fill="none" xmlns="http://www.w3.org/2000/svg">
<g clip-path="url(#clip0_77_6497)">
<path d="M8 10C9.10457 10 10 9.10457 10 8C10 6.89543 9.10457 6 8 6C6.89543 6 6 6.89543 6 8C6 9.10457 6.89543 10 8 10Z" stroke="#0B0B0B" stroke-width="1.6" stroke-linecap="round" stroke-linejoin="round"/>
<path d="M12.9327 9.99996C12.8439 10.201 12.8175 10.4241 12.8567 10.6404C12.8959 10.8566 12.999 11.0562 13.1527 11.2133L13.1927 11.2533C13.3167 11.3771 13.415 11.5242 13.4821 11.686C13.5492 11.8479 13.5837 12.0214 13.5837 12.1966C13.5837 12.3718 13.5492 12.5453 13.4821 12.7072C13.415 12.8691 13.3167 13.0161 13.1927 13.14C13.0689 13.2639 12.9218 13.3623 12.7599 13.4294C12.5981 13.4965 12.4246 13.531 12.2493 13.531C12.0741 13.531 11.9006 13.4965 11.7388 13.4294C11.5769 13.3623 11.4298 13.2639 11.306 13.14L11.266 13.1C11.1089 12.9463 10.9093 12.8432 10.6931 12.804C10.4768 12.7647 10.2538 12.7912 10.0527 12.88C9.8555 12.9645 9.68734 13.1048 9.56889 13.2836C9.45044 13.4625 9.38687 13.6721 9.38602 13.8866V14C9.38602 14.3536 9.24554 14.6927 8.99549 14.9428C8.74544 15.1928 8.4063 15.3333 8.05268 15.3333C7.69906 15.3333 7.35992 15.1928 7.10987 14.9428C6.85982 14.6927 6.71935 14.3536 6.71935 14V13.94C6.71419 13.7193 6.64276 13.5053 6.51436 13.3258C6.38595 13.1462 6.20651 13.0095 5.99935 12.9333C5.79827 12.8445 5.57522 12.8181 5.35896 12.8573C5.14269 12.8965 4.94313 12.9996 4.78602 13.1533L4.74602 13.1933C4.62218 13.3173 4.47513 13.4156 4.31327 13.4827C4.1514 13.5498 3.9779 13.5843 3.80268 13.5843C3.62746 13.5843 3.45396 13.5498 3.2921 13.4827C3.13023 13.4156 2.98318 13.3173 2.85935 13.1933C2.73538 13.0695 2.63703 12.9224 2.56994 12.7605C2.50284 12.5987 2.4683 12.4252 2.4683 12.25C2.4683 12.0747 2.50284 11.9012 2.56994 11.7394C2.63703 11.5775 2.73538 11.4305 2.85935 11.3066L2.89935 11.2666C3.05304 11.1095 3.15614 10.9099 3.19535 10.6937C3.23456 10.4774 3.20809 10.2544 3.11935 10.0533C3.03484 9.85611 2.89452 9.68795 2.71566 9.5695C2.5368 9.45105 2.32721 9.38748 2.11268 9.38663H1.99935C1.64573 9.38663 1.30659 9.24615 1.05654 8.9961C0.806491 8.74605 0.666016 8.40691 0.666016 8.05329C0.666016 7.69967 0.806491 7.36053 1.05654 7.11048C1.30659 6.86043 1.64573 6.71996 1.99935 6.71996H2.05935C2.28001 6.7148 2.49402 6.64337 2.67355 6.51497C2.85308 6.38656 2.98983 6.20712 3.06602 5.99996C3.15476 5.79888 3.18123 5.57583 3.14202 5.35957C3.10281 5.1433 2.99971 4.94375 2.84602 4.78663L2.80602 4.74663C2.68205 4.62279 2.5837 4.47574 2.5166 4.31388C2.4495 4.15202 2.41497 3.97851 2.41497 3.80329C2.41497 3.62807 2.4495 3.45457 2.5166 3.29271C2.5837 3.13084 2.68205 2.98379 2.80602 2.85996C2.92985 2.73599 3.0769 2.63765 3.23876 2.57055C3.40063 2.50345 3.57413 2.46891 3.74935 2.46891C3.92457 2.46891 4.09807 2.50345 4.25994 2.57055C4.4218 2.63765 4.56885 2.73599 4.69268 2.85996L4.73268 2.89996C4.8898 3.05365 5.08936 3.15675 5.30562 3.19596C5.52189 3.23517 5.74494 3.2087 5.94602 3.11996H5.99935C6.19653 3.03545 6.36469 2.89513 6.48314 2.71627C6.60159 2.53741 6.66516 2.32782 6.66602 2.11329V1.99996C6.66602 1.64634 6.80649 1.3072 7.05654 1.05715C7.30659 0.807102 7.64573 0.666626 7.99935 0.666626C8.35297 0.666626 8.69211 0.807102 8.94216 1.05715C9.19221 1.3072 9.33268 1.64634 9.33268 1.99996V2.05996C9.33354 2.27448 9.3971 2.48408 9.51555 2.66294C9.634 2.8418 9.80217 2.98212 9.99935 3.06663C10.2004 3.15537 10.4235 3.18184 10.6397 3.14263C10.856 3.10342 11.0556 3.00032 11.2127 2.84663L11.2527 2.80663C11.3765 2.68266 11.5236 2.58431 11.6854 2.51721C11.8473 2.45011 12.0208 2.41558 12.196 2.41558C12.3712 2.41558 12.5447 2.45011 12.7066 2.51721C12.8685 2.58431 13.0155 2.68266 13.1393 2.80663C13.2633 2.93046 13.3617 3.07751 13.4288 3.23937C13.4959 3.40124 13.5304 3.57474 13.5304 3.74996C13.5304 3.92518 13.4959 4.09868 13.4288 4.26055C13.3617 4.42241 13.2633 4.56946 13.1393 4.69329L13.0993 4.73329C12.9457 4.89041 12.8426 5.08997 12.8033 5.30623C12.7641 5.5225 12.7906 5.74555 12.8793 5.94663V5.99996C12.9639 6.19714 13.1042 6.3653 13.283 6.48375C13.4619 6.6022 13.6715 6.66577 13.886 6.66663H13.9993C14.353 6.66663 14.6921 6.8071 14.9422 7.05715C15.1922 7.3072 15.3327 7.64634 15.3327 7.99996C15.3327 8.35358 15.1922 8.69272 14.9422 8.94277C14.6921 9.19282 14.353 9.33329 13.9993 9.33329H13.9393C13.7248 9.33415 13.5152 9.39771 13.3364 9.51616C13.1575 9.63461 13.0172 9.80278 12.9327 9.99996V9.99996Z" stroke="#0B0B0B" stroke-width="1.6" stroke-linecap="round" stroke-linejoin="round"/>
</g>
<defs>
<clipPath id="clip0_77_6497">
<rect width="16" height="16" fill="white"/>
</clipPath>
</defs>
</svg>
