<svg width="16" height="16" viewBox="0 0 16 16" fill="none" xmlns="http://www.w3.org/2000/svg">
<path fill-rule="evenodd" clip-rule="evenodd" d="M1.04766 15.7761L8.06833 8.77544L10.543 11.2428L2.19699 15.8701C1.87966 16.0461 1.49099 16.0434 1.17566 15.8628L1.04766 15.7761ZM7.36033 8.06944L0.666992 14.7434V1.39544L7.36033 8.06944ZM11.543 5.31144L14.813 7.12411C15.1343 7.30278 15.3337 7.63744 15.3337 8.00011C15.3337 8.36278 15.1343 8.69744 14.813 8.87611L11.4537 10.7381L8.77699 8.06944L11.543 5.31144ZM0.973659 0.288776C1.03366 0.230776 1.10099 0.18011 1.17566 0.137443C1.49099 -0.0432237 1.87966 -0.0458904 2.19699 0.13011L10.6323 4.80678L8.06833 7.36344L0.973659 0.288776Z" fill="#111111"/>
</svg>
