<svg width="4" height="6" viewBox="0 0 4 6" fill="none" xmlns="http://www.w3.org/2000/svg">
<path d="M1.2017 4.1875V4.11364C1.2036 3.77083 1.2358 3.49811 1.2983 3.29545C1.36269 3.0928 1.4536 2.92992 1.57102 2.80682C1.68845 2.68182 1.83144 2.56724 2 2.46307C2.11553 2.3911 2.21875 2.3125 2.30966 2.22727C2.40246 2.14015 2.47538 2.04356 2.52841 1.9375C2.58144 1.82955 2.60795 1.70928 2.60795 1.5767C2.60795 1.42708 2.57292 1.29735 2.50284 1.1875C2.43277 1.07765 2.33807 0.992424 2.21875 0.931818C2.10133 0.871212 1.9697 0.840909 1.82386 0.840909C1.68939 0.840909 1.56155 0.870265 1.44034 0.928977C1.32102 0.985795 1.22159 1.07292 1.14205 1.19034C1.06439 1.30587 1.02083 1.45265 1.01136 1.63068H0C0.00946971 1.27083 0.0965909 0.969697 0.261364 0.727273C0.42803 0.484849 0.647727 0.30303 0.920455 0.181818C1.19508 0.060606 1.49811 0 1.82955 0C2.19129 0 2.50947 0.063447 2.78409 0.190341C3.06061 0.317235 3.27557 0.498106 3.42898 0.732955C3.58428 0.965909 3.66193 1.24242 3.66193 1.5625C3.66193 1.77841 3.62689 1.97159 3.55682 2.14205C3.48864 2.3125 3.3911 2.46402 3.2642 2.59659C3.13731 2.72917 2.98674 2.84754 2.8125 2.9517C2.65909 3.0464 2.53314 3.14489 2.43466 3.24716C2.33807 3.34943 2.2661 3.4697 2.21875 3.60795C2.1733 3.74432 2.14962 3.91288 2.14773 4.11364V4.1875H1.2017ZM1.69602 5.96023C1.52557 5.96023 1.37879 5.89962 1.25568 5.77841C1.13258 5.6572 1.07102 5.50947 1.07102 5.33523C1.07102 5.16477 1.13258 5.01894 1.25568 4.89773C1.37879 4.77652 1.52557 4.71591 1.69602 4.71591C1.86458 4.71591 2.01042 4.77652 2.13352 4.89773C2.25852 5.01894 2.32102 5.16477 2.32102 5.33523C2.32102 5.45076 2.29167 5.55587 2.23295 5.65057C2.17614 5.74527 2.10038 5.82102 2.00568 5.87784C1.91288 5.93277 1.80966 5.96023 1.69602 5.96023Z" fill="#FF3123"/>
</svg>
