<svg width="17" height="18" viewBox="0 0 17 18" fill="#0B0B0B" xmlns="http://www.w3.org/2000/svg">
<path d="M6.22394 13.2736C6.22394 13.7456 5.84428 14.1283 5.37595 14.1283C4.90762 14.1283 4.52796 13.7456 4.52796 13.2736C4.52796 12.8015 4.90762 12.4189 5.37595 12.4189C5.84428 12.4189 6.22394 12.8015 6.22394 13.2736Z"  />
<path fill-rule="evenodd" clip-rule="evenodd" d="M2.83198 1.9488C2.24656 1.9488 1.77199 2.42713 1.77199 3.01718V13.367C1.77199 13.6699 1.89953 13.9585 2.12288 14.1611L3.90435 15.7771C4.09899 15.9537 4.35158 16.0514 4.61344 16.0514H6.13846C6.40032 16.0514 6.65292 15.9537 6.84756 15.7771L8.97991 13.8428V3.01718C8.97991 2.42713 8.50534 1.9488 7.91993 1.9488H2.83198ZM10.2519 12.5807L14.7509 8.04614C15.1648 7.62891 15.1648 6.95245 14.7509 6.53522L10.8622 2.61575C10.6826 2.43472 10.4118 2.40151 10.1988 2.51611C10.2336 2.67757 10.2519 2.84522 10.2519 3.01718V12.5807ZM9.59842 1.38548C9.17429 0.942361 8.57904 0.666748 7.91993 0.666748H2.83198C1.54406 0.666748 0.5 1.71907 0.5 3.01718V13.367C0.5 14.0333 0.780586 14.6683 1.27197 15.114L3.05343 16.73C3.48164 17.1185 4.03735 17.3334 4.61344 17.3334H6.13846C6.71456 17.3334 7.27026 17.1185 7.69847 16.73L10.0414 14.6048C10.0497 14.5972 10.0577 14.5895 10.0656 14.5816L15.6503 8.95268C16.561 8.03478 16.561 6.54658 15.6503 5.62868L11.7616 1.7092C11.1759 1.11887 10.2928 1.01096 9.59842 1.38548Z"  />
</svg>
