<svg width="18" height="18" viewBox="0 0 18 18" fill="#0B0B0B" xmlns="http://www.w3.org/2000/svg">
<path   clip-rule="evenodd" d="M6.80252 1.9488C5.33583 1.9488 4.14684 3.13779 4.14684 4.60448C4.14684 6.07117 5.33583 7.26016 6.80252 7.26016C8.26921 7.26016 9.4582 6.07117 9.4582 4.60448C9.4582 3.13779 8.26921 1.9488 6.80252 1.9488ZM2.86479 4.60448C2.86479 2.42973 4.62778 0.666748 6.80252 0.666748C8.97727 0.666748 10.7403 2.42973 10.7403 4.60448C10.7403 6.77923 8.97727 8.54221 6.80252 8.54221C4.62778 8.54221 2.86479 6.77923 2.86479 4.60448Z"  />
<path   clip-rule="evenodd" d="M5.1766 11.8389C3.39407 11.8389 1.94904 13.2839 1.94904 15.0665C1.94904 15.1552 1.96434 15.2164 1.97971 15.2511C1.99209 15.2791 2.00121 15.2844 2.00525 15.2867C2.44493 15.5452 3.70977 16.0514 6.80252 16.0514C9.89528 16.0514 11.1597 15.5454 11.5994 15.287C11.6035 15.2846 11.613 15.2791 11.6253 15.2511C11.6407 15.2164 11.656 15.1552 11.656 15.0665C11.656 13.2839 10.211 11.8389 8.42845 11.8389H5.1766ZM0.666992 15.0665C0.666992 12.5759 2.68601 10.5569 5.1766 10.5569H8.42845C10.919 10.5569 12.9381 12.5759 12.9381 15.0665C12.9381 15.4954 12.7931 16.0725 12.249 16.3922C11.532 16.8136 10.0077 17.3334 6.80252 17.3334C3.59732 17.3334 2.07301 16.8136 1.35602 16.3922C0.811972 16.0725 0.666992 15.4954 0.666992 15.0665Z"  />
<path   clip-rule="evenodd" d="M11.9529 2.23942C12.0453 1.89766 12.3972 1.69548 12.739 1.78785C14.153 2.17002 15.1359 3.56632 15.1359 5.15393C15.1359 6.83144 13.9861 8.34392 12.3735 8.53763C12.022 8.57985 11.7028 8.32913 11.6606 7.97763C11.6184 7.62613 11.8691 7.30695 12.2206 7.26473C13.0805 7.16144 13.8538 6.29792 13.8538 5.15393C13.8538 4.06853 13.1883 3.23733 12.4045 3.0255C12.0627 2.93313 11.8606 2.58119 11.9529 2.23942Z"  />
<path   clip-rule="evenodd" d="M13.8657 11.0752C13.9334 10.7277 14.2701 10.5009 14.6175 10.5687C16.1951 10.8764 17.3337 12.2584 17.3337 13.8657V14.3113C17.3337 14.7058 17.2153 15.2677 16.7007 15.5967C16.3542 15.8182 15.8168 16.0541 14.9882 16.2218C14.6413 16.292 14.303 16.0676 14.2328 15.7206C14.1626 15.3736 14.387 15.0354 14.734 14.9652C15.4409 14.8222 15.8229 14.6362 16.0102 14.5165L16.0117 14.515C16.0131 14.5133 16.0181 14.5065 16.0243 14.4914C16.0379 14.4582 16.0516 14.3988 16.0516 14.3113V13.8657C16.0516 12.8719 15.3476 12.0173 14.3721 11.8271C14.0246 11.7593 13.7979 11.4227 13.8657 11.0752Z"  />
</svg>
