<svg width="18" height="18" viewBox="0 0 18 18" fill="#0B0B0B" xmlns="http://www.w3.org/2000/svg">
<path   clip-rule="evenodd" d="M3.23109 3.93881C3.23109 2.65765 4.28342 1.61906 5.58152 1.61906H9.00033C9.35435 1.61906 9.64135 1.90231 9.64135 2.25172C9.64135 2.60113 9.35435 2.88438 9.00033 2.88438H5.58152C4.99147 2.88438 4.51315 3.35647 4.51315 3.93881V4.78236C4.51315 5.13177 4.22615 5.41502 3.87212 5.41502C3.51809 5.41502 3.23109 5.13177 3.23109 4.78236V3.93881ZM3.87212 12.5852C4.22615 12.5852 4.51315 12.8684 4.51315 13.2178V14.0614C4.51315 14.6437 4.99147 15.1158 5.58152 15.1158H9.00033C9.35435 15.1158 9.64135 15.399 9.64135 15.7484C9.64135 16.0979 9.35435 16.3811 9.00033 16.3811H5.58152C4.28342 16.3811 3.23109 15.3425 3.23109 14.0614V13.2178C3.23109 12.8684 3.51809 12.5852 3.87212 12.5852Z"  />
<path   clip-rule="evenodd" d="M9.64135 2.98856C9.64135 2.25417 10.383 1.74471 11.0808 1.99977L15.3543 3.56188C15.7734 3.71508 16.0516 4.10957 16.0516 4.55067V13.4495C16.0516 13.8906 15.7734 14.2851 15.3543 14.4383L11.0808 16.0004C10.383 16.2555 9.64135 15.746 9.64135 15.0116V2.98856ZM11.5261 0.813218C9.99094 0.252078 8.3593 1.3729 8.3593 2.98856V15.0116C8.3593 16.6273 9.99095 17.7481 11.5261 17.1869L15.7996 15.6248C16.7216 15.2878 17.3337 14.4199 17.3337 13.4495V4.55067C17.3337 3.58025 16.7216 2.71237 15.7996 2.37533L11.5261 0.813218Z"  />
<path   clip-rule="evenodd" d="M4.27355 6.86564C4.52388 6.61857 4.92976 6.61857 5.1801 6.86564L6.8895 8.55273C7.13983 8.7998 7.13983 9.20037 6.8895 9.44744L5.1801 11.1345C4.92976 11.3816 4.52388 11.3816 4.27355 11.1345C4.02321 10.8875 4.02321 10.4869 4.27355 10.2398L4.88865 9.63274H1.30802C0.953989 9.63274 0.666992 9.34949 0.666992 9.00008C0.666992 8.65068 0.953989 8.36743 1.30802 8.36743H4.88865L4.27355 7.76035C4.02321 7.51328 4.02321 7.11271 4.27355 6.86564Z"  />
</svg>
