<svg width="19" height="18" viewBox="0 0 19 18" fill="#0B0B0B" xmlns="http://www.w3.org/2000/svg">
<path   clip-rule="evenodd" d="M0.833008 1.29966C0.833008 0.950112 1.12192 0.666748 1.47831 0.666748H2.11023C3.30352 0.666748 4.31007 1.53825 4.45808 2.69958L4.62921 4.04228H16.827C17.7475 4.04228 18.4526 4.84526 18.316 5.73814L17.3935 11.7705C17.2197 12.9065 16.2247 13.7469 15.0535 13.7469H6.8321C5.66088 13.7469 4.66589 12.9065 4.49215 11.7705L3.42137 4.76907L3.41922 4.75369L3.17743 2.85659C3.11016 2.32871 2.65263 1.93257 2.11023 1.93257H1.47831C1.12192 1.93257 0.833008 1.64921 0.833008 1.29966ZM4.80886 5.3081L5.76849 11.5827C5.84746 12.0991 6.29973 12.4811 6.8321 12.4811H15.0535C15.5859 12.4811 16.0382 12.0991 16.1171 11.5827L17.0397 5.55036C17.0592 5.42281 16.9585 5.3081 16.827 5.3081H4.80886Z"  />
<path d="M16.1053 16.4895C16.1053 16.9556 15.72 17.3334 15.2449 17.3334C14.7697 17.3334 14.3844 16.9556 14.3844 16.4895C14.3844 16.0235 14.7697 15.6457 15.2449 15.6457C15.72 15.6457 16.1053 16.0235 16.1053 16.4895Z"  />
<path d="M7.50118 16.4895C7.50118 16.9556 7.11596 17.3334 6.64077 17.3334C6.16558 17.3334 5.78036 16.9556 5.78036 16.4895C5.78036 16.0235 6.16558 15.6457 6.64077 15.6457C7.11596 15.6457 7.50118 16.0235 7.50118 16.4895Z"  />
</svg>
