<svg width="18" height="18" viewBox="0 0 18 18" fill="#0B0B0B" xmlns="http://www.w3.org/2000/svg">
<path   clip-rule="evenodd" d="M0.666992 13.2736C0.666992 11.9755 1.71931 10.9232 3.01742 10.9232C4.31553 10.9232 5.36785 11.9755 5.36785 13.2736V14.983C5.36785 16.2811 4.31552 17.3334 3.01742 17.3334C1.71931 17.3334 0.666992 16.2811 0.666992 14.983V13.2736ZM3.01742 12.2052C2.42737 12.2052 1.94904 12.6835 1.94904 13.2736V14.983C1.94904 15.573 2.42737 16.0514 3.01742 16.0514C3.60747 16.0514 4.0858 15.573 4.0858 14.983V13.2736C4.0858 12.6835 3.60747 12.2052 3.01742 12.2052Z"  />
<path   clip-rule="evenodd" d="M6.6499 8.14538C6.6499 6.84728 7.70222 5.79495 9.00033 5.79495C10.2984 5.79495 11.3508 6.84728 11.3508 8.14538V14.983C11.3508 16.2811 10.2984 17.3334 9.00033 17.3334C7.70222 17.3334 6.6499 16.2811 6.6499 14.983V8.14538ZM9.00033 7.077C8.41028 7.077 7.93195 7.55533 7.93195 8.14538V14.983C7.93195 15.573 8.41028 16.0514 9.00033 16.0514C9.59037 16.0514 10.0687 15.573 10.0687 14.983V8.14538C10.0687 7.55533 9.59037 7.077 9.00033 7.077Z"  />
<path   clip-rule="evenodd" d="M12.6328 3.01718C12.6328 1.71907 13.6851 0.666748 14.9832 0.666748C16.2813 0.666748 17.3337 1.71907 17.3337 3.01718V14.983C17.3337 16.2811 16.2813 17.3334 14.9832 17.3334C13.6851 17.3334 12.6328 16.2811 12.6328 14.983V3.01718ZM14.9832 1.9488C14.3932 1.9488 13.9149 2.42713 13.9149 3.01718V14.983C13.9149 15.573 14.3932 16.0514 14.9832 16.0514C15.5733 16.0514 16.0516 15.573 16.0516 14.983V3.01718C16.0516 2.42713 15.5733 1.9488 14.9832 1.9488Z"  />
</svg>
