<svg width="18" height="18" viewBox="0 0 18 18" fill="#0B0B0B" xmlns="http://www.w3.org/2000/svg">
<path   clip-rule="evenodd" d="M9.00033 1.9488C7.18218 1.9488 4.69379 2.11484 3.15317 2.23323C2.65252 2.2717 2.25869 2.6596 2.21318 3.15607C2.09598 4.43465 1.94904 6.32057 1.94904 7.71803C1.94904 9.11549 2.09598 11.0014 2.21318 12.28C2.25869 12.7765 2.65252 13.1644 3.15317 13.2028C4.69379 13.3212 7.18218 13.4873 9.00033 13.4873C10.8185 13.4873 13.3069 13.3212 14.8475 13.2028C15.3481 13.1644 15.742 12.7765 15.7875 12.28C15.9047 11.0014 16.0516 9.11549 16.0516 7.71803C16.0516 6.32057 15.9047 4.43465 15.7875 3.15607C15.742 2.6596 15.3481 2.2717 14.8475 2.23323C13.3069 2.11484 10.8185 1.9488 9.00033 1.9488ZM3.05494 0.954946C4.59616 0.836508 7.12811 0.666748 9.00033 0.666748C10.8725 0.666748 13.4045 0.836508 14.9457 0.954946C16.0662 1.04106 16.9613 1.91634 17.0642 3.03904C17.1816 4.31995 17.3337 6.25682 17.3337 7.71803C17.3337 9.17924 17.1816 11.1161 17.0642 12.397C16.9613 13.5197 16.0662 14.395 14.9457 14.4811C13.4045 14.5996 10.8725 14.7693 9.00033 14.7693C7.12811 14.7693 4.59615 14.5996 3.05494 14.4811C1.93441 14.395 1.03939 13.5197 0.936481 12.397C0.819067 11.1161 0.666992 9.17924 0.666992 7.71803C0.666992 6.25682 0.819067 4.31995 0.936481 3.03904C1.03939 1.91634 1.93441 1.04106 3.05494 0.954946Z"  />
<path   clip-rule="evenodd" d="M4.9405 16.6924C4.9405 16.3384 5.22749 16.0514 5.58152 16.0514H12.4191C12.7732 16.0514 13.0602 16.3384 13.0602 16.6924C13.0602 17.0464 12.7732 17.3334 12.4191 17.3334H5.58152C5.22749 17.3334 4.9405 17.0464 4.9405 16.6924Z"  />
<path   clip-rule="evenodd" d="M1.52169 10.7095C1.52169 10.3555 1.80869 10.0685 2.16272 10.0685H15.8379C16.192 10.0685 16.479 10.3555 16.479 10.7095C16.479 11.0635 16.192 11.3505 15.8379 11.3505H2.16272C1.80869 11.3505 1.52169 11.0635 1.52169 10.7095Z"  />
</svg>
