<svg width="14" height="18" viewBox="0 0 14 18" fill="#0B0B0B" xmlns="http://www.w3.org/2000/svg">
<path   clip-rule="evenodd" d="M2.6986 1.9488C2.10474 1.9488 1.62333 2.42713 1.62333 3.01718V14.983C1.62333 15.573 2.10474 16.0514 2.6986 16.0514H11.3007C11.8946 16.0514 12.376 15.573 12.376 14.983V6.61715C12.376 6.33901 12.2668 6.07184 12.0717 5.87241L8.54915 2.27243C8.3467 2.06553 8.06862 1.9488 7.77819 1.9488H2.6986ZM0.333008 3.01718C0.333008 1.71907 1.39212 0.666748 2.6986 0.666748H7.77819C8.41714 0.666748 9.02891 0.923558 9.47431 1.37874L12.9969 4.97872C13.4262 5.41746 13.6663 6.00525 13.6663 6.61715V14.983C13.6663 16.2811 12.6072 17.3334 11.3007 17.3334H2.6986C1.39212 17.3334 0.333008 16.2811 0.333008 14.983V3.01718Z"  />
<path   clip-rule="evenodd" d="M3.77387 11.5642C3.77387 11.9182 4.06272 12.2052 4.41903 12.2052H9.58032C9.93663 12.2052 10.2255 11.9182 10.2255 11.5642C10.2255 11.2102 9.93663 10.9232 9.58032 10.9232H4.41903C4.06272 10.9232 3.77387 11.2102 3.77387 11.5642Z"  />
<path   clip-rule="evenodd" d="M3.77387 8.14538C3.77387 8.49941 4.06272 8.78641 4.41903 8.78641H6.99967C7.35599 8.78641 7.64483 8.49941 7.64483 8.14538C7.64483 7.79135 7.35599 7.50436 6.99967 7.50436H4.41903C4.06272 7.50436 3.77387 7.79135 3.77387 8.14538Z"  />
</svg>
