<svg width="12" height="11" viewBox="0 0 12 11" fill="none" xmlns="http://www.w3.org/2000/svg">
<path fill-rule="evenodd" clip-rule="evenodd" d="M9.1922 10.3896C9.3532 10.5036 9.5607 10.5321 9.7457 10.4621C9.9307 10.3916 10.0667 10.2336 10.1077 10.0421C10.5422 8.00007 11.5962 2.83157 11.9917 0.974074C12.0217 0.834074 11.9717 0.688574 11.8617 0.595074C11.7517 0.501574 11.5992 0.474574 11.4632 0.525074C9.3667 1.30107 2.9102 3.72357 0.271199 4.70007C0.103699 4.76207 -0.00530107 4.92307 0.000198927 5.09957C0.00619893 5.27657 0.125199 5.43007 0.296699 5.48157C1.4802 5.83557 3.0337 6.32807 3.0337 6.32807C3.0337 6.32807 3.7597 8.52057 4.1382 9.63557C4.1857 9.77557 4.2952 9.88557 4.4397 9.92357C4.5837 9.96107 4.7377 9.92157 4.8452 9.82007C5.4532 9.24607 6.3932 8.35857 6.3932 8.35857C6.3932 8.35857 8.1792 9.66807 9.1922 10.3896ZM3.6872 6.05107L4.5267 8.82007L4.7132 7.06657C4.7132 7.06657 7.9567 4.14107 9.8057 2.47357C9.8597 2.42457 9.8672 2.34257 9.8222 2.28507C9.7777 2.22757 9.6957 2.21407 9.6342 2.25307C7.4912 3.62157 3.6872 6.05107 3.6872 6.05107Z" fill="white"/>
</svg>
