<svg width="12" height="10" viewBox="0 0 12 10" fill="none" xmlns="http://www.w3.org/2000/svg">
<path d="M12 1.27852C11.5585 1.47452 11.084 1.60652 10.586 1.66602C11.0945 1.36152 11.485 0.879023 11.6685 0.304024C11.193 0.586024 10.666 0.791023 10.105 0.901523C9.6565 0.423023 9.016 0.124023 8.308 0.124023C6.7185 0.124023 5.5505 1.60702 5.9095 3.14652C3.864 3.04402 2.05 2.06402 0.8355 0.574523C0.1905 1.68102 0.501 3.12852 1.597 3.86152C1.194 3.84852 0.814 3.73802 0.4825 3.55352C0.4555 4.69402 1.273 5.76102 2.457 5.99852C2.1105 6.09252 1.731 6.11452 1.345 6.04052C1.658 7.01852 2.567 7.73002 3.645 7.75002C2.61 8.56152 1.306 8.92402 0 8.77002C1.0895 9.46852 2.384 9.87602 3.774 9.87602C8.345 9.87602 10.9275 6.01552 10.7715 2.55302C11.2525 2.20552 11.67 1.77202 12 1.27852Z" fill="white"/>
</svg>
