<svg width="50" height="48" viewBox="0 0 50 48" fill="none" xmlns="http://www.w3.org/2000/svg">
<path d="M34.2969 37.8594C30.0859 37.8594 26.7559 36.3984 24.3066 33.4766C21.8574 30.5404 20.6328 26.5228 20.6328 21.4238C20.6328 16.3105 21.8574 12.3145 24.3066 9.43555C26.7702 6.55664 30.1003 5.11719 34.2969 5.11719C38.4935 5.11719 41.8164 6.55664 44.2656 9.43555C46.7148 12.3001 47.9395 16.2891 47.9395 21.4023C47.9395 26.5013 46.7148 30.5189 44.2656 33.4551C41.8164 36.3913 38.4935 37.8594 34.2969 37.8594ZM31.1172 28.4492C31.9193 30.0534 32.9792 30.8555 34.2969 30.8555C35.6146 30.8555 36.6673 30.0534 37.4551 28.4492C38.2572 26.8451 38.6582 24.5033 38.6582 21.4238C38.6582 18.3444 38.2643 16.0241 37.4766 14.4629C36.6888 12.9017 35.6289 12.1211 34.2969 12.1211C32.9648 12.1211 31.8978 12.9017 31.0957 14.4629C30.3079 16.0241 29.9141 18.3444 29.9141 21.4238C29.9141 24.5033 30.3151 26.8451 31.1172 28.4492Z" fill="#C56622"/>
<g filter="url(#filter0_d_288_7879)">
<path d="M15.4805 37.5586C23.752 37.5586 28.8438 33.9062 28.8438 28.0195V27.9766C28.8438 23.959 25.9004 21.4453 21.1953 20.9512V20.7793C24.5898 20.1133 27.5547 17.6855 27.5547 13.7754V13.7324C27.5547 8.68359 22.8496 5.43945 15.416 5.43945C8.19727 5.43945 3.4707 9.11328 3.08398 14.8066L3.0625 15.1289H11.2695L11.291 14.9355C11.4844 13.2598 12.9883 12.0781 15.416 12.0781C17.7363 12.0781 19.1758 13.1953 19.1758 15V15.043C19.1758 16.9551 17.543 18.1152 14.7285 18.1152H11.5273V24.1094H14.7285C17.8867 24.1094 19.584 25.248 19.584 27.3535V27.3965C19.584 29.2012 18.0371 30.4902 15.459 30.4902C12.8809 30.4902 11.2695 29.2871 11.0332 27.9121L10.9902 27.6543H2.31055L2.33203 27.9336C2.7832 33.7344 7.85352 37.5586 15.4805 37.5586Z" fill="#C56622"/>
</g>
<rect x="32" y="29" width="18" height="12" rx="6" fill="white"/>
<path d="M37.5703 34.709L37.2275 36.0625C37.0674 36.7012 36.9111 37.1641 36.7588 37.4512C36.6064 37.7383 36.4277 37.9502 36.2227 38.0869C36.0195 38.2256 35.7861 38.2949 35.5225 38.2949C35.3564 38.2949 35.2344 38.2627 35.1562 38.1982C35.0781 38.1357 35.0391 38.0615 35.0391 37.9756C35.0391 37.8955 35.0713 37.8262 35.1357 37.7676C35.2002 37.709 35.2852 37.6797 35.3906 37.6797C35.4785 37.6797 35.5459 37.7021 35.5928 37.7471C35.6396 37.792 35.6631 37.8486 35.6631 37.917C35.6631 37.9795 35.6484 38.0254 35.6191 38.0547C35.5898 38.0859 35.5752 38.1064 35.5752 38.1162L35.5898 38.1367C35.6016 38.1465 35.6152 38.1514 35.6309 38.1514C35.6895 38.1514 35.7393 38.1328 35.7803 38.0957C35.8838 38.0039 35.9609 37.8926 36.0117 37.7617C36.0469 37.6719 36.1143 37.4346 36.2139 37.0498L36.8115 34.709H36.4043L36.501 34.3662C36.6475 34.3682 36.7539 34.3496 36.8203 34.3105C36.8867 34.2715 36.957 34.1836 37.0312 34.0469C37.2461 33.6504 37.4727 33.3662 37.7109 33.1943C37.9492 33.0225 38.2148 32.9365 38.5078 32.9365C38.6953 32.9365 38.8311 32.9727 38.915 33.0449C39.001 33.1172 39.0439 33.2109 39.0439 33.3262C39.0439 33.4277 39.0156 33.5088 38.959 33.5693C38.9023 33.6279 38.832 33.6572 38.748 33.6572C38.6699 33.6572 38.6055 33.6328 38.5547 33.584C38.5039 33.5352 38.4785 33.4766 38.4785 33.4082C38.4785 33.3594 38.4941 33.3076 38.5254 33.2529C38.5586 33.1982 38.5752 33.1611 38.5752 33.1416C38.5752 33.1201 38.5674 33.1025 38.5518 33.0889C38.5381 33.0752 38.5195 33.0684 38.4961 33.0684C38.3809 33.0684 38.2627 33.1396 38.1416 33.2822C37.9424 33.5107 37.7822 33.8721 37.6611 34.3662H38.0859L37.9834 34.709H37.5703ZM39.4189 34.2842L38.9766 35.9307C39.3398 35.1279 39.6133 34.6338 39.7969 34.4482C39.9043 34.3389 40.0176 34.2842 40.1367 34.2842C40.2188 34.2842 40.2852 34.3145 40.3359 34.375C40.3867 34.4336 40.4121 34.5176 40.4121 34.627C40.4121 34.8164 40.3662 34.9756 40.2744 35.1045C40.2158 35.1865 40.1504 35.2275 40.0781 35.2275C40 35.2275 39.9414 35.1914 39.9023 35.1191C39.8633 35.0469 39.8359 35.0049 39.8203 34.9932C39.8047 34.9795 39.7881 34.9727 39.7705 34.9727C39.751 34.9727 39.7305 34.9785 39.709 34.9902C39.666 35.0137 39.6094 35.0713 39.5391 35.1631C39.4707 35.2529 39.3857 35.4043 39.2842 35.6172C39.1826 35.8301 39.1035 36.0107 39.0469 36.1592C38.9902 36.3057 38.9111 36.5859 38.8096 37H38.1006L38.584 35.0576C38.6191 34.9131 38.6367 34.8174 38.6367 34.7705C38.6367 34.7178 38.627 34.6768 38.6074 34.6475C38.5898 34.6182 38.5645 34.5967 38.5312 34.583C38.5 34.5693 38.4336 34.5625 38.332 34.5625L38.3584 34.4775L39.2432 34.2842H39.4189ZM41.2734 35.9014C41.2559 36.0283 41.2471 36.1328 41.2471 36.2148C41.2471 36.3613 41.2891 36.4785 41.373 36.5664C41.459 36.6543 41.5732 36.6982 41.7158 36.6982C41.8525 36.6982 41.9893 36.665 42.126 36.5986C42.2646 36.5322 42.4248 36.416 42.6064 36.25L42.6943 36.3291C42.4697 36.6006 42.251 36.7939 42.0381 36.9092C41.8252 37.0244 41.5898 37.082 41.332 37.082C41.0059 37.082 40.7803 37.0039 40.6553 36.8477C40.5303 36.6914 40.4678 36.5107 40.4678 36.3057C40.4678 35.9854 40.5605 35.665 40.7461 35.3447C40.9336 35.0244 41.1875 34.7676 41.5078 34.5742C41.8301 34.3809 42.1533 34.2842 42.4775 34.2842C42.6416 34.2842 42.7656 34.3232 42.8496 34.4014C42.9336 34.4795 42.9756 34.5781 42.9756 34.6973C42.9756 34.8398 42.9346 34.9785 42.8525 35.1133C42.7393 35.2969 42.5967 35.4453 42.4248 35.5586C42.2529 35.6699 42.0605 35.7549 41.8477 35.8135C41.7051 35.8525 41.5137 35.8818 41.2734 35.9014ZM41.2998 35.749C41.4717 35.7236 41.6045 35.6895 41.6982 35.6465C41.7939 35.6016 41.8867 35.5312 41.9766 35.4355C42.0684 35.3379 42.1475 35.2158 42.2139 35.0693C42.2803 34.9209 42.3135 34.7822 42.3135 34.6533C42.3135 34.5986 42.2979 34.5557 42.2666 34.5244C42.2373 34.4932 42.1992 34.4775 42.1523 34.4775C42.0586 34.4775 41.9531 34.543 41.8359 34.6738C41.6211 34.9121 41.4424 35.2705 41.2998 35.749ZM43.9395 35.9014C43.9219 36.0283 43.9131 36.1328 43.9131 36.2148C43.9131 36.3613 43.9551 36.4785 44.0391 36.5664C44.125 36.6543 44.2393 36.6982 44.3818 36.6982C44.5186 36.6982 44.6553 36.665 44.792 36.5986C44.9307 36.5322 45.0908 36.416 45.2725 36.25L45.3604 36.3291C45.1357 36.6006 44.917 36.7939 44.7041 36.9092C44.4912 37.0244 44.2559 37.082 43.998 37.082C43.6719 37.082 43.4463 37.0039 43.3213 36.8477C43.1963 36.6914 43.1338 36.5107 43.1338 36.3057C43.1338 35.9854 43.2266 35.665 43.4121 35.3447C43.5996 35.0244 43.8535 34.7676 44.1738 34.5742C44.4961 34.3809 44.8193 34.2842 45.1436 34.2842C45.3076 34.2842 45.4316 34.3232 45.5156 34.4014C45.5996 34.4795 45.6416 34.5781 45.6416 34.6973C45.6416 34.8398 45.6006 34.9785 45.5186 35.1133C45.4053 35.2969 45.2627 35.4453 45.0908 35.5586C44.9189 35.6699 44.7266 35.7549 44.5137 35.8135C44.3711 35.8525 44.1797 35.8818 43.9395 35.9014ZM43.9658 35.749C44.1377 35.7236 44.2705 35.6895 44.3643 35.6465C44.46 35.6016 44.5527 35.5312 44.6426 35.4355C44.7344 35.3379 44.8135 35.2158 44.8799 35.0693C44.9463 34.9209 44.9795 34.7822 44.9795 34.6533C44.9795 34.5986 44.9639 34.5557 44.9326 34.5244C44.9033 34.4932 44.8652 34.4775 44.8184 34.4775C44.7246 34.4775 44.6191 34.543 44.502 34.6738C44.2871 34.9121 44.1084 35.2705 43.9658 35.749Z" fill="#C56622"/>
<defs>
<filter id="filter0_d_288_7879" x="-0.689453" y="0.439453" width="40.5332" height="46.1191" filterUnits="userSpaceOnUse" color-interpolation-filters="sRGB">
<feFlood flood-opacity="0" result="BackgroundImageFix"/>
<feColorMatrix in="SourceAlpha" type="matrix" values="0 0 0 0 0 0 0 0 0 0 0 0 0 0 0 0 0 0 127 0" result="hardAlpha"/>
<feOffset dx="4" dy="2"/>
<feGaussianBlur stdDeviation="3.5"/>
<feComposite in2="hardAlpha" operator="out"/>
<feColorMatrix type="matrix" values="0 0 0 0 0.225203 0 0 0 0 0.112544 0 0 0 0 0.0319038 0 0 0 0.48 0"/>
<feBlend mode="normal" in2="BackgroundImageFix" result="effect1_dropShadow_288_7879"/>
<feBlend mode="normal" in="SourceGraphic" in2="effect1_dropShadow_288_7879" result="shape"/>
</filter>
</defs>
</svg>
