<svg width="47" height="14" viewBox="0 0 47 14" fill="none" xmlns="http://www.w3.org/2000/svg">
<g clip-path="url(#clip0_317_4929)">
<path fill-rule="evenodd" clip-rule="evenodd" d="M46.3095 5.62681C46.6393 6.09886 46.6725 6.84284 46.3224 7.41942C46.0098 7.93438 44.1387 9.91047 43.5298 10.5455C43.002 11.0971 42.2896 11.6494 41.5885 11.6494H26.9075C24.9234 11.6494 24.8037 10.9767 24.8037 9.4558V3.28625C24.8037 1.73292 25.2621 1.28394 26.6171 1.28394H41.5885C42.2896 1.28394 42.9136 1.64185 43.6303 2.3706C44.2387 2.98901 46.0563 5.26364 46.3095 5.62681Z" fill="#33CCCC"/>
<path fill-rule="evenodd" clip-rule="evenodd" d="M46.3095 5.62681C46.6393 6.09886 46.6725 6.84284 46.3224 7.41942C46.0098 7.93438 44.1387 9.91047 43.5298 10.5455C43.002 11.0971 42.2896 11.6494 41.5885 11.6494H26.9075C24.9234 11.6494 24.8037 10.9767 24.8037 9.4558V3.28625C24.8037 1.73292 25.2621 1.28394 26.6171 1.28394H41.5885C42.2896 1.28394 42.9136 1.64185 43.6303 2.3706C44.2387 2.98901 46.0563 5.26364 46.3095 5.62681Z" fill="url(#paint0_linear_317_4929)"/>
<path fill-rule="evenodd" clip-rule="evenodd" d="M28.1321 3.66947V3.62885C28.1321 3.43049 28.1155 3.23442 27.7905 3.23442H26.5636C26.2784 3.23442 26.2604 3.39212 26.2604 3.63713V5.26761C26.8576 4.41358 27.5198 4.01678 28.1321 3.66947ZM36.3628 9.56101V9.47347H36.3637V5.54919C36.3637 3.90349 35.6403 3.08073 34.1934 3.08091C33.7924 3.07714 33.3983 3.18488 33.055 3.39212C32.7106 3.5997 32.3797 3.88967 32.0622 4.26201C31.9062 3.85738 31.6709 3.55938 31.3564 3.36801C31.0418 3.17664 30.6343 3.08093 30.1337 3.08091C29.5543 3.08091 28.8807 3.28388 28.4033 3.67663C28.2964 3.78362 26.2601 5.38641 26.2601 7.03253V9.54493C26.2601 9.62483 26.2216 9.92798 26.5612 9.92798H27.8385C28.2356 9.92798 28.1968 9.66795 28.1968 9.56101V5.49757C28.4124 5.21159 28.853 4.5053 29.5685 4.5053C29.8431 4.5053 30.0409 4.59824 30.1618 4.78413C30.2827 4.97001 30.3434 5.28168 30.3439 5.71913V8.89288H30.3424V9.54501C30.3424 9.62492 30.3039 9.92806 30.6434 9.92806H31.9045C32.3018 9.92806 32.263 9.66804 32.263 9.5611V9.47356H32.2645V5.49775C32.4955 5.21176 32.9558 4.50547 33.6357 4.50547C33.9155 4.50547 34.1173 4.59842 34.2411 4.7843C34.3648 4.97018 34.4267 5.28185 34.4265 5.71931V8.89305H34.4252V9.54518C34.4252 9.62509 34.3868 9.92823 34.7266 9.92823H36.0043C36.4017 9.92806 36.3628 9.66795 36.3628 9.56101ZM43.3973 7.96551C42.9432 9.18736 41.8553 9.87019 40.5073 9.87019C38.5547 9.87019 37.265 8.53967 37.265 6.54414C37.265 4.57266 38.6039 3.14365 40.4465 3.14365C42.2692 3.14365 43.4917 4.41306 43.5693 6.45789C43.5793 6.71917 43.5029 6.95 43.1765 6.95H39.0334C39.058 8.04649 39.5866 8.63795 40.5198 8.63795C41.089 8.63795 41.4262 8.39254 41.7199 7.9116C41.8475 7.70234 42.1092 7.71398 42.1092 7.71398H43.1765C43.3507 7.71385 43.4279 7.88409 43.3973 7.96538V7.96551ZM40.4465 4.41229C39.672 4.41229 39.1317 4.95428 39.0334 5.84177H41.8096C41.7358 5.0655 41.318 4.41229 40.4465 4.41229Z" fill="white"/>
<path fill-rule="evenodd" clip-rule="evenodd" d="M7.62573 1.34029C7.46161 1.07876 7.24871 0.851257 6.99865 0.67018C6.74859 0.49449 6.47399 0.356735 6.18365 0.261387C5.86119 0.156352 5.52812 0.0871553 5.19052 0.0550495C4.80428 0.0170675 4.4164 -0.00128262 4.02833 6.96082e-05H0.627322C0.321501 6.96082e-05 0.000934494 0.200931 0.000934494 0.579711V6.09456C0.431765 7.0137 1.271 7.9895 2.22515 8.45586V7.36212C2.22515 6.78498 2.65978 6.65605 2.83955 6.65605H3.84515C5.23032 6.65605 6.28753 6.36515 7.01681 5.7834C7.74608 5.20246 8.11067 4.33955 8.11067 3.19465C8.11274 2.86384 8.07437 2.53402 7.99644 2.21251C7.91895 1.90427 7.79386 1.60999 7.62573 1.34029ZM5.64385 4.17257C5.52643 4.37638 5.35127 4.54084 5.14054 4.64529C4.91212 4.75425 4.66538 4.81963 4.41299 4.83804C4.13812 4.86253 3.85427 4.87482 3.56145 4.87487H2.60583C2.37207 4.87487 2.22515 4.68457 2.22515 4.40385V2.14913C2.22515 1.89626 2.39001 1.79018 2.58768 1.79018H3.56145C3.87865 1.79018 4.17612 1.79934 4.45387 1.81765C4.70384 1.82905 4.94934 1.88832 5.17702 1.99225C5.37995 2.08885 5.54791 2.24604 5.65774 2.44214C5.77348 2.6438 5.83135 2.92841 5.83143 3.29595C5.83143 3.66912 5.76891 3.96133 5.64385 4.17257ZM2.22515 8.81226C1.17574 8.39295 0.472213 7.89274 0.000934494 7.39684V10.0592C0.000934494 10.0592 -0.0378753 10.4934 0.384717 10.4934H1.86849C2.27552 10.4934 2.22533 10.0592 2.22533 10.0592V8.81226H2.22515ZM23.2532 2.90125H21.9215C21.6509 2.90125 21.4726 3.01501 21.3652 3.31264C21.2579 3.61026 19.8465 7.54134 19.8465 7.54134C19.8465 7.54134 18.4963 3.69146 18.39 3.39336C18.2838 3.09526 18.1093 2.90125 17.7949 2.90125H16.5714C16.1397 2.90125 16.1397 3.24032 16.1932 3.37477C16.2367 3.48344 17.9123 8.07618 18.5505 9.8258C18.701 10.2389 18.7604 10.3632 18.7651 10.5162C18.7697 10.6693 18.6141 10.9906 18.5066 11.1749C18.4573 11.2591 18.4005 11.3388 18.3372 11.413C19.5883 11.0384 21.0304 9.6791 21.7761 8.20653C22.5135 6.15433 23.4858 3.44338 23.528 3.3047C23.5958 3.08008 23.5952 2.90125 23.2532 2.90125ZM17.3731 11.8035C17.2575 11.8015 17.1421 11.7931 17.0275 11.7785C16.8871 11.7599 16.6244 11.7862 16.6244 12.0162V13.0444C16.6244 13.4368 16.8121 13.4629 16.9153 13.4862C17.2261 13.551 17.543 13.5816 17.8604 13.5775C18.2811 13.5775 18.6471 13.501 18.9585 13.3479C19.273 13.1923 19.5532 12.9754 19.7826 12.7099C20.0356 12.4144 20.2494 12.0874 20.4187 11.7371C20.6046 11.3608 20.7831 10.9461 20.9541 10.4933C20.9541 10.4933 21.0274 10.2886 21.1481 9.95335C20.7808 10.3242 19.0496 11.9658 17.3731 11.8035ZM15.3734 4.12181C15.3011 3.94997 15.2024 3.79048 15.0808 3.64916C14.9597 3.5135 14.8211 3.39458 14.6685 3.29556C14.5039 3.18855 14.3293 3.09784 14.1472 3.02471C13.9612 2.95207 13.7699 2.89383 13.575 2.8505C13.3534 2.80197 13.1285 2.76976 12.9023 2.75412C12.6579 2.73593 12.3832 2.72675 12.0782 2.72661C10.0609 2.72661 8.91222 3.3642 8.63214 4.63938C8.54107 5.03506 8.93249 5.05831 8.93249 5.05831H10.1735C10.4975 5.05831 10.4835 4.95391 10.6408 4.66094C10.6974 4.50152 10.7993 4.36206 10.934 4.25967C11.1721 4.0762 11.5291 3.98446 12.0049 3.98443C12.4627 3.98443 12.7952 4.07307 13.0027 4.25036C13.21 4.42765 13.3321 4.69695 13.3688 5.05831C13.3688 5.47732 13.2381 5.75688 12.7316 5.75688C11.4967 5.71203 10.1697 5.85174 9.42235 6.28024C8.67496 6.70874 8.25246 7.54647 8.25246 8.44612C8.25246 8.81308 8.31805 9.13438 8.44931 9.41006C8.57647 9.6803 8.76449 9.91752 8.99859 10.103C9.24702 10.2968 9.53175 10.4388 9.83597 10.5207C10.1818 10.6156 10.539 10.662 10.8976 10.6587C11.4347 10.6587 11.9092 10.5914 12.3211 10.4567C12.733 10.3222 13.3703 9.87884 13.4515 9.81415V10.0505C13.4515 10.2847 13.5227 10.4936 13.8022 10.4936H15.2453C15.5374 10.4936 15.6024 10.2847 15.6024 10.0276V5.58176C15.6049 5.30539 15.5866 5.02924 15.5476 4.75563C15.5166 4.53783 15.4581 4.32485 15.3734 4.12181ZM13.4055 8.48083C13.4055 8.48083 13.0328 9.25491 11.7029 9.25491C11.337 9.25491 11.0395 9.17233 10.8105 9.00717C10.5814 8.84202 10.467 8.58493 10.4671 8.23599C10.4671 7.78278 10.6533 7.46286 11.0257 7.27627C11.3977 7.08981 12.1426 6.9833 12.7007 6.99637C13.2588 7.00943 13.4055 7.36212 13.4055 7.60563V8.481V8.48083Z" fill="#333333"/>
</g>
<defs>
<linearGradient id="paint0_linear_317_4929" x1="53.7636" y1="4.2768" x2="50.9133" y2="21.4921" gradientUnits="userSpaceOnUse">
<stop offset="0.47231" stop-color="#00CCCC"/>
<stop offset="1" stop-color="#3399FF"/>
</linearGradient>
<clipPath id="clip0_317_4929">
<rect width="46.5714" height="13.5833" fill="white"/>
</clipPath>
</defs>
</svg>
